<?xml version="1.0" encoding="UTF-8"?>
<svg id="Capa_2" data-name="Capa 2" xmlns="http://www.w3.org/2000/svg" viewBox="0 0 187.92 187.92">
  <defs>
    <style>
      .cls-1 {
        fill: #060647;
        stroke-width: 0px;
      }
    </style>
  </defs>
  <g id="Capa_1-2" data-name="Capa 1">
    <g>
      <path class="cls-1" d="m109.73,186.59c-5.13.88-10.4,1.33-15.77,1.33C42.07,187.92,0,145.85,0,93.96,0,53.55,25.51,19.1,61.3,5.83c-3.81,2.78-6.81,6.65-8.61,11.01-4.1,9.89-1.88,21.23,1.54,31.38,2.89,8.58,7.09,24.69,8.31,29.45.15.59.9.76,1.31.3.62-.71,1.38-1.61,1.66-2.12.61-1.12,1.42-3.65,1.77-4.9.22-.78,1.45-.53,1.61.26,2.5,12.14-1,24.04,1.6,36.22,1.13,5.32,2.83,10.49,4.67,15.59.38,1.09,2.46,10.01,3.99,10.1.15.01.27-.09.35-.21,2.29-3.5,4.28-7.18,5.95-11,.24-.55,1.02-.49,1.18.09,4.49,16.2-4.78,34.9,2.45,50.21,3.75,7.94,11.94,13.54,20.65,14.38Z"/>
      <path class="cls-1" d="m117.25,159.21c.77,2.88-.91,6.04-3.79,6.8-3.12.83-6.45-2.28-6.98-4.26-2.87-10.71,3.12-20.17.41-33.38-.15-.7-1.11-.73-1.32-.06-1.33,4.37-3.03,7.98-4.62,9.55-.31.31-.84.14-.95-.28-4.73-17.63-11.46-34.65-16.37-52.25-2.67-9.59-5.08-19.25-7.21-28.97-2.01-9.17-3.18-18.64-5.6-27.68-.04-.17-.09-.34-.13-.51-.77-2.86.93-5.82,4.05-6.67,2.88-.78,5.91,1.11,6.68,3.99l13.41,50.06c.15.56.91.68,1.21.18,1.14-1.87,2.25-4.56,3.19-7.64.21-.67,1.17-.63,1.31.05,1.85,8.99,1.23,16.35.49,23.45-.35,3.38-.08,6.79.8,10.07l.41,1.54c1.65,5.76,3.5,10.17,4.46,13.26.15.5.75.67,1.17.36,3.47-2.58,4.59-4.92,6.15-10.05.21-.67,1.17-.63,1.3.06,3.97,19.31-3.45,31.1,1.01,48.96l.92,3.42Z"/>
      <path class="cls-1" d="m187.92,93.96c0,40.64-25.81,75.26-61.93,88.36,4.23-2.84,7.64-6.89,9.51-11.63,3.21-8.14,2-17.35-.37-25.77-2.04-7.22-4.91-14.25-6.53-21.56-3.76-14.38,1.81-32.65-.58-47.5-.13-.82-1.27-.87-1.49-.07-1.22,4.33-3.77,7.57-3.77,7.57-1.26,2.52-3.17,2.15-4.06-.36-3.19-9.07-6.77-18.55-7.48-28.21-.68-9.27,1.29-18.36-.19-27.64-.12-.78-1.21-.87-1.49-.12-1.92,5.09-4.66,7.28-4.66,7.28-1.82-8.99-3.88-18.46-10.09-25.21-4.24-4.61-10.3-7.27-16.53-7.79,5.1-.86,10.35-1.31,15.7-1.31,51.89,0,93.96,42.07,93.96,93.96Z"/>
      <path class="cls-1" d="m127.91,119.73c.19,1.22.42,2.43.69,3.63.13.49.27.98.42,1.46-.37-1.69-.74-3.39-1.11-5.09Z"/>
    </g>
  </g>
</svg>