<?xml version="1.0" encoding="UTF-8"?>
<svg xmlns="http://www.w3.org/2000/svg" version="1.1" viewBox="0 0 512 512">
  <defs>
    <style>
      .cls-1 {
        fill: #1c1b18;
      }
    </style>
  </defs>
  <!-- Generator: Adobe Illustrator 28.6.0, SVG Export Plug-In . SVG Version: 1.2.0 Build 709)  -->
  <g>
    <g id="Filled">
      <path class="cls-1" d="M419.7,58.8C365.1,13.3,293.9-7.2,223.4,2.1,83.2,20.3-15.7,148.8,2.6,289c16.6,127.5,125.2,223,253.8,223h148.9c58.9-.1,106.6-47.8,106.7-106.7v-165.3c-4.6-70.6-37.9-136-92.3-181.2ZM170.7,149.3h85.3c11.8,0,21.3,9.6,21.3,21.3s-9.6,21.3-21.3,21.3h-85.3c-11.8,0-21.3-9.6-21.3-21.3,0-11.7,9.5-21.3,21.3-21.3ZM341.3,362.7h-170.6c-11.8,0-21.3-9.6-21.3-21.3s9.6-21.3,21.3-21.3h170.7c11.8,0,21.3,9.6,21.3,21.3s-9.6,21.3-21.4,21.3ZM341.3,277.3h-170.6c-11.8,0-21.3-9.6-21.3-21.3s9.6-21.3,21.3-21.3h170.7c11.8,0,21.3,9.6,21.3,21.3,0,11.8-9.6,21.3-21.4,21.3Z"/>
    </g>
  </g>
</svg>